# xmcd
#
# Track frame offsets: 
#        150
#        20108
#        39893
#        59262
#        79231
#        97810
#        113102
#        130149
#        149017
#        177311
#        194479
#
# Disc length: 2845 seconds
#
# Revision: 0
# Processed by: cddbd v1.5.2PL0 Copyright (c) Steve Scherf et al.
# Submitted via: ExactAudioCopy v0.99pb1
#
DISCID=970b1b0b
DTITLE=Bill Lyerly Band - Cobalt Blues
DYEAR=1999
DGENRE=Blues
TTITLE0=I Won't Care
TTITLE1=Willy And The Handjive
TTITLE2=Uh Huh
TTITLE3=FM Shoes
TTITLE4=Dark Glasses
TTITLE5=Down On My Luck
TTITLE6=Strange Feeling
TTITLE7=Cobalt Blues - Done Somebody Wrong
TTITLE8=Crazy Mama
TTITLE9=Lonesome Whistle
TTITLE10=I've Got Your Number
EXTD=
EXTT0=
EXTT1=
EXTT2=
EXTT3=
EXTT4=
EXTT5=
EXTT6=
EXTT7=
EXTT8=
EXTT9=
EXTT10=
PLAYORDER=
